<?xml version="1.0" encoding="UTF-8" standalone="no"?><svg xmlns="http://www.w3.org/2000/svg" xmlns:xlink="http://www.w3.org/1999/xlink" fill="#00bf63" height="25" preserveAspectRatio="xMidYMid meet" version="1" viewBox="0.0 0.0 25.0 25.0" width="25" zoomAndPan="magnify"><g id="change1_1"><path d="M9.769,17.213C9.2,16.623,8.91,15.592,8.896,14.5H7.631c0,1.426,0.438,2.704,1.154,3.438 c0.683,0.699,1.762,1.119,3.215,1.277V21.5h1v-2.236c0.586,0,1.156-0.078,1.709-0.234c0.555-0.156,1.051-0.395,1.486-0.716 c0.436-0.319,0.781-0.714,1.045-1.185c0.26-0.471,0.391-1.013,0.391-1.627c0-0.653-0.135-1.199-0.401-1.639 c-0.269-0.439-0.62-0.802-1.054-1.091c-0.436-0.288-0.932-0.514-1.487-0.678c-0.553-0.162-1.116-0.3-1.688-0.411V6.262 c0.881,0.002,1.593,0.281,2.141,0.837C15.689,7.657,15.986,8.56,16,9.5h1.248c0.016-0.614-0.088-1.326-0.311-1.826 c-0.221-0.502-0.527-0.932-0.922-1.289c-0.396-0.358-0.854-0.634-1.377-0.829c-0.521-0.193-1.066-0.29-1.639-0.29V3.5h-1v1.78 c-0.509,0.018-0.991,0.09-1.438,0.238c-0.508,0.169-0.953,0.413-1.336,0.733c-0.381,0.32-0.682,0.706-0.902,1.157 c-0.221,0.452-0.332,0.96-0.332,1.525c0,0.663,0.115,1.21,0.342,1.636c0.226,0.428,0.531,0.778,0.914,1.055 c0.381,0.275,0.83,0.495,1.344,0.657c0.45,0.143,0.924,0.257,1.408,0.361v5.587C11.049,18.095,10.299,17.762,9.769,17.213z M13,12.85c0.386,0.087,0.777,0.194,1.178,0.318c0.4,0.125,0.762,0.285,1.082,0.478c0.322,0.196,0.586,0.443,0.794,0.744 c0.208,0.301,0.312,0.678,0.312,1.129c0,0.49-0.096,0.907-0.291,1.251c-0.193,0.346-0.449,0.632-0.764,0.857 c-0.314,0.226-0.672,0.389-1.074,0.49c-0.399,0.1-0.811,0.148-1.236,0.148V12.85z M11.115,11.229 c-0.355-0.101-0.67-0.238-0.945-0.413c-0.273-0.177-0.494-0.402-0.661-0.679C9.341,9.862,9.258,9.504,9.258,9.065 c0-0.489,0.076-0.912,0.231-1.271c0.154-0.357,0.369-0.648,0.643-0.875c0.273-0.226,0.588-0.391,0.943-0.499 c0.291-0.087,0.603-0.13,0.926-0.145v5.183C11.699,11.385,11.402,11.311,11.115,11.229z" fill="inherit"/><path d="M12.5,25C19.403,25,25,19.403,25,12.5S19.403,0,12.5,0C5.597,0,0,5.597,0,12.5S5.597,25,12.5,25z M12.5,1 C18.841,1,24,6.158,24,12.5S18.841,24,12.5,24C6.159,24,1,18.842,1,12.5S6.159,1,12.5,1z" fill="inherit"/></g></svg>