<?xml version="1.0" encoding="UTF-8" standalone="no"?><svg xmlns="http://www.w3.org/2000/svg" xmlns:xlink="http://www.w3.org/1999/xlink" fill="#000000" height="234.7" preserveAspectRatio="xMidYMid meet" version="1" viewBox="96.1 95.0 233.2 234.7" width="233.2" zoomAndPan="magnify"><g id="change1_1"><path d="M317.798,312.491H113.91V108.603c0-11.421-6.008,0.133-6.008,0.133v206.593 c0.017,0.045,0.034,0.082,0.05,0.126c-0.16,0.628,0.068,1.307,1.011,1.986c0.678,0.939,1.355,1.167,1.982,1.007 c0.044,0.018,0.082,0.035,0.127,0.052h206.592C317.665,318.499,329.219,312.491,317.798,312.491z" fill="#00bf63"/></g><g id="change1_2"><path d="M100.242,118.549c-0.768,0-1.543-0.238-2.207-0.732c-1.637-1.221-1.976-3.537-0.755-5.174 c2.344-3.145,8.773-11.988,10.361-15.106c0.927-1.819,3.154-2.543,4.973-1.617c1.819,0.927,2.543,3.153,1.616,4.973 c-2.16,4.24-10.12,14.961-11.021,16.169C102.483,118.035,101.37,118.549,100.242,118.549z" fill="#00bf63"/></g><g id="change1_3"><path d="M121.629,118.549c-1.128,0-2.242-0.514-2.968-1.488c-0.9-1.208-8.861-11.929-11.021-16.169 c-0.927-1.819-0.203-4.046,1.616-4.973c1.82-0.927,4.046-0.202,4.973,1.617c1.588,3.118,8.018,11.962,10.361,15.106 c1.22,1.637,0.882,3.953-0.755,5.174C123.172,118.311,122.397,118.549,121.629,118.549z" fill="#00bf63"/></g><g id="change1_4"><path d="M324.953,318.993c-0.564,0-1.137-0.13-1.675-0.403c-4.241-2.159-14.961-10.121-16.169-11.021 c-1.637-1.221-1.976-3.537-0.755-5.175c1.22-1.636,3.538-1.974,5.174-0.755c3.145,2.344,11.988,8.773,15.105,10.361 c1.82,0.927,2.543,3.153,1.617,4.973C327.598,318.255,326.299,318.993,324.953,318.993z" fill="#00bf63"/></g><g id="change1_5"><path d="M309.321,329.684c-1.128,0-2.242-0.514-2.968-1.488c-1.22-1.637-0.882-3.953,0.755-5.174 c1.208-0.9,11.928-8.861,16.168-11.021c1.819-0.927,4.046-0.203,4.973,1.616c0.927,1.82,0.204,4.046-1.616,4.974 c-3.118,1.588-11.961,8.018-15.106,10.361C310.864,329.445,310.089,329.684,309.321,329.684z" fill="#00bf63"/></g><g id="change2_1"><path d="M139.698,262.473c0,0-11.698-0.538-12.353,11.737c0,0-1.417,12.69,12.231,13.229 c0,0,12.429,0.016,12.063-13.12C151.64,274.318,152.736,263.119,139.698,262.473z" fill="#00bf63"/></g><g id="change2_2"><path d="M183.629,208.319c0,0-11.699-0.537-12.354,11.737c0,0-1.416,12.691,12.231,13.229 c0,0,12.429,0.016,12.063-13.121C195.571,220.164,196.667,208.967,183.629,208.319z" fill="#00bf63"/></g><g id="change2_3"><path d="M253.913,242.206c0,0-11.698-0.538-12.353,11.736c0,0-1.417,12.691,12.231,13.229 c0,0,12.428,0.016,12.063-13.121C265.855,254.051,266.951,242.854,253.913,242.206z" fill="#00bf63"/></g><g id="change2_4"><path d="M291.473,159.491c0,0-11.698-0.538-12.353,11.736c0,0-1.417,12.691,12.231,13.229 c0,0,12.429,0.015,12.063-13.121C303.415,171.336,304.511,160.138,291.473,159.491z" fill="#00bf63"/></g><g id="change2_5"><path d="M143.061 277.856L135.903 272.05 182.131 215.065 251.451 248.487 287.062 170.066 295.454 173.877 255.944 260.886 184.696 226.534z" fill="#00bf63"/></g></svg>