<?xml version="1.0" encoding="UTF-8" standalone="no"?><svg xmlns="http://www.w3.org/2000/svg" xmlns:xlink="http://www.w3.org/1999/xlink" fill="#00bf63" height="128" preserveAspectRatio="xMidYMid meet" version="1" viewBox="0.0 0.0 128.0 128.0" width="128" zoomAndPan="magnify"><g id="change1_1"><path d="M91,58c0-14.9-12.1-27-27-27c-14.9,0-27,12.1-27,27s12.1,27,27,27C78.9,85,91,72.9,91,58z M64,81c-12.7,0-23-10.3-23-23 s10.3-23,23-23s23,10.3,23,23S76.7,81,64,81z" fill="inherit"/></g><g id="change1_2"><path d="M82.3,56.6c0.5-0.8,0.7-1.7,0.7-2.7c0-3.1-2.5-5.4-5.7-5.4l-3.7,0c0.1-0.6,0.1-1.1,0.1-1.4c-0.2-1.6-0.6-5.9-4.3-7.5 c-2-0.9-4.4-0.6-6.1,0.8c-2.3,1.9-2.2,4.5-2.2,5.6c0,0.1,0,0.8,0,0.8c-0.4,0.8-1.3,2.3-1.9,3.3c-0.3-0.3-0.7-0.4-1.2-0.4h-7 c-1.1,0-2,0.9-2,2V67c0,1.1,0.9,2,2,2h7c0.6,0,1.1-0.2,1.5-0.6c0.2,0,0.4,0.1,0.7,0.1c0,0,0.1,0,0.1,0c0.4,0.2,1,0.5,1.6,0.7 c0.3,0.1,0.7,0.1,1,0.1l11.9,0c3.1,0,5.7-2.5,5.7-5.6c0.7-0.9,1.1-2,1.1-3.3c0-0.1,0-0.2,0-0.4c0.5-0.8,0.8-1.8,0.8-2.9 C82.3,56.9,82.3,56.8,82.3,56.6z M56,53.6c-0.2,0.4-0.2,0.9-0.2,1.4v9.4c0,0.2,0,0.4,0.1,0.6H53V53.6L56,53.6L56,53.6z M77.3,55.5 h-0.4c0.8,0.1,1.5,0.8,1.5,1.6c0,0.9-0.8,1.6-1.7,1.6h-0.7c0.9,0,1.6,0.8,1.6,1.6c0,0.9-0.8,1.6-1.7,1.6h-1c0.9,0,1.6,0.8,1.6,1.6 c0,0.9-0.8,1.6-1.7,1.6l-11.8,0c-0.5-0.1-0.9-0.5-1.3-0.7c-0.5-0.3-1.1-0.1-1.6-0.2v-9.6c0.5-0.3,1.5-0.9,1.5-1 c0.2-0.5,3.7-5.5,3.7-6.5c0-0.3,0-0.7,0-1c0-1-0.3-2.2,0.6-2.9c0.6-0.5,1.3-0.6,2-0.2c1.5,0.6,1.8,3,1.9,4.3c0.1,0.7-1,4.7-1.2,5 l8.8,0c0.9,0,1.7,0.5,1.7,1.4C79,54.8,78.2,55.5,77.3,55.5z" fill="inherit"/></g><g id="change1_3"><path d="M97.1,31.3l-1.6,13.1c-0.1,0.6,0.2,1.3,0.6,1.7l4.5,4.1c0.4,0.4,0.9,0.5,1.4,0.5c0.5,0,0.9-0.2,1.3-0.5l4.5-4 c0.5-0.4,0.7-1.1,0.7-1.7L107,31.3c-1.3,0.4-2.6,0.6-4,0.7l1.4,12l-2.4,2.1l-2.4-2.2l1.5-11.9C99.7,31.9,98.4,31.7,97.1,31.3z" fill="inherit"/></g><g id="change1_4"><path d="M90.8,28.1c-1.2-1-2.4-2.2-3.3-3.4c-3.5,1-6.5,3.2-8.6,6.2c1.2,0.6,2.3,1.4,3.4,2.2C84.2,30.2,87.3,28.4,90.8,28.1z" fill="inherit"/></g><g id="change1_5"><path d="M116.5,24.6c-0.9,1.3-2,2.4-3.3,3.4c6,0.6,10.8,5.7,10.8,12v15.8c0,0.1-0.1,0.2-0.1,0.2H94.9c0,0.7,0.1,1.3,0.1,2 s0,1.3-0.1,2h28.9c2.3,0,4.1-1.9,4.1-4.2V40C128,32.7,123.1,26.5,116.5,24.6z" fill="inherit"/></g><g id="change1_6"><path d="M102,28c7.7,0,14-6.3,14-14s-6.3-14-14-14c-7.7,0-14,6.3-14,14S94.3,28,102,28z M102,4c5.5,0,10,4.5,10,10s-4.5,10-10,10 c-5.5,0-10-4.5-10-10S96.5,4,102,4z" fill="inherit"/></g><g id="change1_7"><path d="M21.1,99.3l-1.6,13.1c-0.1,0.6,0.2,1.3,0.6,1.7l4.5,4.1c0.4,0.4,0.9,0.5,1.4,0.5c0.5,0,0.9-0.2,1.3-0.5l4.5-4 c0.5-0.4,0.7-1.1,0.7-1.7L31,99.3c-1.3,0.4-2.6,0.6-4,0.7l1.4,12l-2.4,2.1l-2.4-2.2l1.5-11.9C23.7,99.9,22.4,99.7,21.1,99.3z" fill="inherit"/></g><g id="change1_8"><path d="M40.5,92.6c-0.9,1.3-2,2.4-3.3,3.4c6,0.6,10.8,5.7,10.8,12v15.8c0,0.1-0.1,0.2-0.1,0.2H4.1c-0.1,0-0.1-0.1-0.1-0.2V108 c0-6.3,4.7-11.4,10.8-12c-1.2-1-2.3-2.1-3.3-3.4C4.9,94.5,0,100.7,0,108v15.8c0,2.3,1.9,4.2,4.1,4.2h43.7c2.3,0,4.1-1.9,4.1-4.2V108 C52,100.7,47.1,94.5,40.5,92.6z" fill="inherit"/></g><g id="change1_9"><path d="M40,82c0-7.7-6.3-14-14-14c-7.7,0-14,6.3-14,14s6.3,14,14,14C33.7,96,40,89.7,40,82z M26,92c-5.5,0-10-4.5-10-10 s4.5-10,10-10c5.5,0,10,4.5,10,10S31.5,92,26,92z" fill="inherit"/></g><g id="change1_10"><path d="M97.1,99.3l-1.6,13.1c-0.1,0.6,0.2,1.3,0.6,1.7l4.5,4.1c0.4,0.4,0.9,0.5,1.4,0.5c0.5,0,0.9-0.2,1.3-0.5l4.5-4 c0.5-0.4,0.7-1.1,0.7-1.7L107,99.3c-1.3,0.4-2.6,0.6-4,0.7l1.4,12l-2.4,2.1l-2.4-2.2l1.5-11.9C99.7,99.9,98.4,99.7,97.1,99.3z" fill="inherit"/></g><g id="change1_11"><path d="M116.5,92.6c-0.9,1.3-2,2.4-3.3,3.4c6,0.6,10.8,5.7,10.8,12v15.8c0,0.1-0.1,0.2-0.1,0.2H80.1c-0.1,0-0.1-0.1-0.1-0.2V108 c0-6.3,4.7-11.4,10.8-12c-1.2-1-2.3-2.1-3.3-3.4C80.9,94.5,76,100.7,76,108v15.8c0,2.3,1.9,4.2,4.1,4.2h43.7c2.3,0,4.1-1.9,4.1-4.2 V108C128,100.7,123.1,94.5,116.5,92.6z" fill="inherit"/></g><g id="change1_12"><path d="M116,82c0-7.7-6.3-14-14-14c-7.7,0-14,6.3-14,14s6.3,14,14,14C109.7,96,116,89.7,116,82z M102,92c-5.5,0-10-4.5-10-10 s4.5-10,10-10c5.5,0,10,4.5,10,10S107.5,92,102,92z" fill="inherit"/></g><g id="change1_13"><path d="M21.1,31.3l-1.6,13.1c-0.1,0.6,0.2,1.3,0.6,1.7l4.5,4.1c0.4,0.4,0.9,0.5,1.4,0.5c0.5,0,0.9-0.2,1.3-0.5l4.5-4 c0.5-0.4,0.7-1.1,0.7-1.7L31,31.3c-1.3,0.4-2.6,0.6-4,0.7l1.4,12L26,46.1l-2.4-2.2L25.1,32C23.7,31.9,22.4,31.7,21.1,31.3z" fill="inherit"/></g><g id="change1_14"><path d="M4.1,60h28.9c0-0.7-0.1-1.3-0.1-2s0-1.3,0.1-2H4.1C4.1,56,4,55.9,4,55.8V40c0-6.3,4.7-11.4,10.8-12c-1.2-1-2.3-2.1-3.3-3.4 C4.9,26.5,0,32.7,0,40v15.8C0,58.1,1.9,60,4.1,60z" fill="inherit"/></g><g id="change1_15"><path d="M37.2,28.1c3.5,0.3,6.6,2.2,8.5,4.9c1.1-0.8,2.2-1.5,3.4-2.2c-2.1-3-5.1-5.2-8.6-6.2C39.6,25.9,38.4,27.1,37.2,28.1z" fill="inherit"/></g><g id="change1_16"><path d="M26,28c7.7,0,14-6.3,14-14S33.7,0,26,0c-7.7,0-14,6.3-14,14S18.3,28,26,28z M26,4c5.5,0,10,4.5,10,10s-4.5,10-10,10 c-5.5,0-10-4.5-10-10S20.5,4,26,4z" fill="inherit"/></g></svg>